<svg xmlns="http://www.w3.org/2000/svg"i class="icon icon-tabler icon-tabler-notebook" width="24" height="24"  viewBox="0 0 24 24" stroke-width="1.5" stroke="currentColor" fill="none" stroke-linecap="round" stroke-linejoin="round">
 <g id="x0020_1">
  <metadata id="CorelCorpID_0Corel-Layer"/>
  <g id="_3040113594816">
   <path class="fil0" d="M1715 585c6,0 12,0 18,0 -48,-143 -147,-268 -278,-361 -153,-108 -349,-173 -558,-173 -235,0 -448,82 -602,215 -150,130 -244,310 -244,511 0,112 29,214 83,307 58,99 144,188 254,266 19,14 26,38 19,59l-50 155 201 -103c11,-5 22,-7 33,-5l0 0c12,2 38,8 64,13 82,17 156,32 242,32 6,0 12,0 18,0 -3,-13 -5,-25 -7,-38 -5,-35 -8,-70 -8,-104 0,-215 91,-409 239,-549 147,-139 350,-225 576,-225zm0 51c29,0 57,2 86,5 -79,-368 -464,-641 -904,-641 -493,0 -897,342 -897,778 0,249 134,455 359,615l-89 275 311 -160c112,22 203,45 316,45 26,0 55,0 84,-2 -19,-62 -29,-127 -29,-191 0,-399 337,-722 763,-722zm-483 -249c67,0 112,45 112,115 0,69 -45,115 -112,115 -67,0 -134,-45 -134,-115 0,-69 67,-115 134,-115zm-627 230c-67,0 -134,-45 -134,-115 0,-69 67,-115 134,-115 67,0 112,45 112,115 0,69 -45,115 -112,115zm627 -281c48,0 89,17 118,47 29,30 46,71 46,119 0,48 -17,90 -46,119 -29,30 -70,47 -118,47 -47,0 -94,-17 -129,-47 -34,-29 -56,-70 -56,-120 0,-49 22,-90 56,-120 35,-30 82,-47 129,-47zm-627 333c-47,0 -94,-17 -129,-47 -34,-29 -56,-70 -56,-120 0,-49 22,-90 56,-120 35,-30 82,-47 129,-47 48,0 89,17 118,47 29,30 46,71 46,119 0,48 -17,90 -46,119 -29,30 -70,47 -118,47z"/>
   <path class="fil0" d="M2480 1347c0,-165 -81,-315 -208,-426 -131,-114 -311,-185 -502,-185 -199,0 -376,69 -504,181 -127,111 -205,263 -205,431 0,168 78,321 204,431 128,111 306,180 505,180 76,0 151,-18 228,-37 30,-7 1,0 30,-7 14,-3 28,0 39,7l131 73 -31 -107c-6,-22 2,-44 19,-56 90,-70 167,-150 219,-238 46,-76 72,-159 72,-247zm51 0c0,-364 -356,-663 -761,-663 -426,0 -761,299 -761,663 0,366 335,663 761,663 91,0 179,-24 270,-46l244 136 -67 -227c179,-139 313,-321 313,-526zm-1007 -115c-45,0 -89,-43 -89,-91 0,-45 43,-91 89,-91 67,0 112,45 112,91 0,48 -45,91 -112,91zm493 0c-45,0 -89,-43 -89,-91 0,-45 43,-91 89,-91 67,0 112,45 112,91 0,48 -45,91 -112,91zm-493 51c-37,0 -73,-17 -98,-44 -25,-26 -42,-61 -42,-99 0,-37 17,-72 42,-99 26,-26 61,-44 98,-44 44,0 83,15 111,38 34,27 53,66 53,105 0,40 -19,78 -52,105 -28,23 -67,37 -112,37zm493 0c-37,0 -73,-17 -98,-44 -25,-26 -42,-61 -42,-99 0,-37 17,-72 42,-99 26,-26 61,-44 98,-44 44,0 83,15 111,38 34,27 53,66 53,105 0,40 -19,78 -52,105 -28,23 -67,37 -112,37z"/>
  </g>
 </g>
</svg>
