<?xml version="1.0" encoding="utf-8"?>
<!-- Generator: Adobe Illustrator 26.3.1, SVG Export Plug-In . SVG Version: 6.00 Build 0)  -->
<svg version="1.1" xmlns="http://www.w3.org/2000/svg" xmlns:xlink="http://www.w3.org/1999/xlink" x="0px" y="0px"
	 viewBox="0 0 24 24" style="enable-background:new 0 0 24 24;" xml:space="preserve" stroke-width="2" stroke="currentColor" fill="none" stroke-linecap="round" stroke-linejoin="round" width="24" height="24">
<style type="text/css">
	.st0{fill:none;}
</style>
<path class="st0" d="M6.5,4.9l1.6,0l1.5,0l3.6,0h3.2H17c1,0,2.4,0.5,3.2,1.3c0.9,0.8,1.3,1.9,1.3,3.2v6.3c0,1.3-0.5,2.4-1.3,3.2
	c-0.9,0.9-1.9,1.3-3.2,1.3H5.7c-1.3,0-2.4-0.5-3.2-1.3c-0.9-0.9-1.3-1.9-1.3-3.2V9.4c0-1.3,0.5-2.4,1.3-3.2c0.9-0.8,1.9-1.3,3.2-1.3
	L6.5,4.9 M7.3,10.2c0.4,0,0.7,0.1,0.9,0.4c0.2,0.2,0.4,0.6,0.4,1v1.2c0,0.4-0.1,0.7-0.4,1C8,13.9,7.7,14,7.3,14s-0.7-0.1-0.9-0.4
	c-0.2-0.2-0.4-0.6-0.4-1v-1.2c0-0.4,0.1-0.7,0.4-0.9C6.7,10.3,7,10.2,7.3,10.2z M15.3,10.2c0.4,0,0.7,0.1,0.9,0.4
	c0.2,0.2,0.4,0.6,0.4,1v1.2c0,0.4-0.1,0.7-0.4,1C16,13.9,15.7,14,15.3,14s-0.7-0.1-0.9-0.4c-0.2-0.2-0.4-0.6-0.4-1v-1.2
	c0-0.4,0.1-0.7,0.4-1C14.7,10.3,15,10.2,15.3,10.2z"/>
<path class="st0" d="M6.6,2.5l1.5,2.4L6.6,2.5z"/>
<line class="st0" x1="16.1" y1="2.5" x2="14.6" y2="4.9"/>
</svg>
