<svg xmlns="http://www.w3.org/2000/svg" class="icon icon-tabler icon-tabler-user wechat" width="30" height="30" viewBox="0 0 85 85" stroke-width="3" stroke="currentColor" fill="none" stroke-linecap="round" stroke-linejoin="round">
<g id="_1990990525664">
	<g>
		<path class="st0" d="M56.4,27.3c0.8,0,1.5,0.1,2.3,0.1c-6-24.3-47.5-22.4-48.4,3.7c0,6.7,3.6,12.2,9.6,16.5L17.5,55l8.4-4.3
			c3.7,0.8,6.9,1.5,10.7,1.2C32.9,39.6,43,27.2,56.4,27.3z M43.4,19.2c1.3,0,2.4,0.5,3.2,1.3c0.8,0.8,1.2,1.9,1.2,3.2
			c0,1.3-0.5,2.4-1.2,3.2c-0.8,0.8-1.9,1.3-3.2,1.3c-1.3,0-2.5-0.5-3.5-1.2c-0.9-0.8-1.5-1.9-1.5-3.2c0-1.3,0.6-2.4,1.5-3.2
			C40.9,19.8,42.2,19.3,43.4,19.2L43.4,19.2z M26.6,28.2c-1.2,0-2.5-0.5-3.5-1.2c-0.9-0.8-1.5-1.9-1.5-3.2c0-1.3,0.6-2.4,1.5-3.2
			c0.9-0.8,2.2-1.2,3.5-1.2c1.3,0,2.4,0.5,3.2,1.3c0.8,0.8,1.2,1.9,1.2,3.2c0,1.3-0.5,2.4-1.2,3.2C28.9,27.8,27.8,28.2,26.6,28.2
			L26.6,28.2z"/>
	</g>
	<g>
		<path class="st0" d="M78.3,46.4c0-9.8-9.6-17.8-20.4-17.8c-11.5,0-20.4,8.1-20.4,17.8c0,9.8,9,17.8,20.4,17.8
			c2.4,0,4.8-0.7,7.3-1.2l6.5,3.7l-1.8-6.1C74.7,56.8,78.3,51.9,78.3,46.4L78.3,46.4z M51.2,44.7c-1,0-2-0.5-2.6-1.2
			c-0.7-0.7-1.1-1.6-1.1-2.7c0-1,0.5-2,1.1-2.7c0.7-0.7,1.6-1.2,2.6-1.2c1.2,0,2.2,0.4,3,1l0,0l0,0c0.9,0.7,1.4,1.8,1.4,2.8
			c0,1.1-0.5,2.1-1.4,2.8c0,0-0.1,0.1-0.1,0.1C53.4,44.4,52.4,44.7,51.2,44.7L51.2,44.7z M64.5,44.7c-1,0-2-0.5-2.6-1.2
			c-0.7-0.7-1.1-1.6-1.1-2.7c0-1,0.5-2,1.1-2.7c0.7-0.7,1.6-1.2,2.6-1.2c1.2,0,2.2,0.4,3,1c0.9,0.7,1.4,1.8,1.4,2.8
			c0,1.1-0.5,2.1-1.4,2.8c0,0-0.1,0.1-0.1,0.1C66.6,44.4,65.7,44.7,64.5,44.7L64.5,44.7z"/>
	</g>
</g>
</svg>
